<svg id="Color" enable-background="new 0 0 24 24" height="512" viewBox="0 0 24 24" width="512" xmlns="http://www.w3.org/2000/svg"><path d="m4 1.5v3c0 .829.671 1.5 1.5 1.5-.829 0-1.5-.671-1.5-1.5v-1.5z" fill="#545454"/><path d="m24 7.063h-24v13.937c0 1.657 1.343 3 3 3h18c1.657 0 3-1.343 3-3z" fill="#eceff1"/><path d="m21 3h-18c-1.654 0-3 1.346-3 3v2.479.561 1h1 3.771 14.458 3.771 1v-1-.561-2.479c0-1.654-1.346-3-3-3z" fill="#ef5350"/><path d="m0 7.063v13.937c0 1.657 1.343 3 3 3h9v-13.96h-7.229-3.771-1v-1-.561z" fill="#cdd0d2"/><path d="m12 3h-9c-1.654 0-3 1.346-3 3v1.063 1.416.561 1h1 3.771 7.229z" fill="#d04846"/><path d="m10.25 21.009h-3.5c-.414 0-.75-.336-.75-.75v-1.25c0-1.379 1.122-2.5 2.5-2.5.551 0 1-.449 1-1 0-.552-.449-1-1-1h-1.75c-.414 0-.75-.336-.75-.75s.336-.75.75-.75h1.75c1.378 0 2.5 1.121 2.5 2.5 0 1.378-1.122 2.5-2.5 2.5-.551 0-1 .448-1 1v.5h2.75c.414 0 .75.336.75.75s-.336.75-.75.75z" fill="#ef5350"/><path d="m15.5 21.009h-2c-.414 0-.75-.336-.75-.75s.336-.75.75-.75h2c.551 0 1-.449 1-1 0-.552-.449-1-1-1h-2c-.414 0-.75-.336-.75-.75v-3c0-.414.336-.75.75-.75h3.75c.414 0 .75.336.75.75s-.336.75-.75.75h-3v1.5h1.25c1.378 0 2.5 1.121 2.5 2.5 0 1.378-1.122 2.5-2.5 2.5z" fill="#ef5350"/><path d="m10.499 17.009h-3.498c-.607.456-1.001 1.183-1.001 2v1.25c0 .414.336.75.75.75h3.5c.414 0 .75-.336.75-.75s-.336-.75-.75-.75h-2.75v-.5c0-.552.449-1 1-1 .816 0 1.542-.393 1.999-1z" fill="#d04846"/><path d="m17.499 17.009h-4.706c.103.291.381.5.707.5h2c.551 0 1 .448 1 1 0 .551-.449 1-1 1h-2c-.414 0-.75.336-.75.75s.336.75.75.75h2c1.378 0 2.5-1.122 2.5-2.5 0-.563-.187-1.082-.501-1.5z" fill="#d04846"/><path d="m18.5 0c-.829 0-1.5.671-1.5 1.5v3c0 .829.671 1.5 1.5 1.5s1.5-.671 1.5-1.5v-3c0-.829-.671-1.5-1.5-1.5z" fill="#616161"/><path d="m5.5 0c-.829 0-1.5.671-1.5 1.5v3c0 .829.671 1.5 1.5 1.5s1.5-.671 1.5-1.5v-3c0-.829-.671-1.5-1.5-1.5z" fill="#616161"/><path d="m5.5 0c-.829 0-1.5.671-1.5 1.5v1.5 1.5c0 .829.671 1.5 1.5 1.5s1.5-.671 1.5-1.5v-1.5-1.5c0-.829-.671-1.5-1.5-1.5z" fill="#545454"/><g fill="#494949"><path d="m5.5 0c-.829 0-1.5.671-1.5 1.5v1.5 1.5c0 .829.671 1.5 1.5 1.5z"/><path d="m18.5 0c-.829 0-1.5.671-1.5 1.5v1.5 1.5c0 .829.671 1.5 1.5 1.5z"/></g></svg>