<?xml version="1.0" encoding="utf-8"?>
<!-- Generator: Adobe Illustrator 23.0.0, SVG Export Plug-In . SVG Version: 6.00 Build 0)  -->
<svg version="1.1" id="Capa_1" xmlns="http://www.w3.org/2000/svg" xmlns:xlink="http://www.w3.org/1999/xlink" x="0px" y="0px"
	 viewBox="0 0 2726.7 636.6" style="enable-background:new 0 0 2726.7 636.6;" xml:space="preserve">
<style type="text/css">
	.st0{fill:#524369;}
	.st1{fill:none;}
	.st2{fill:#FFC952;}
	.st3{fill:#FF7473;}
</style>
<path class="st0" d="M376.4,203.2C376.4,99.5,292,15,188.2,15S0,99.5,0,203.2c0,30.4,7.3,59.1,20.2,84.6l168.1,346.7l168.2-346.8
	C369.1,262.4,376.4,233.6,376.4,203.2z M188.2,307.4C130.8,307.4,84,260.7,84,203.2S130.8,99.1,188.2,99.1s104.2,46.7,104.2,104.2
	S245.7,307.4,188.2,307.4z"/>
<path class="st0" d="M2591.9,172.1c-74.3,0-134.8,60.5-134.8,134.8c0,21.7,5.1,42.3,14.5,60.5l120.3,248.2l120.3-248.2
	c9.2-18.2,14.5-38.8,14.5-60.5C2726.7,232.6,2666.2,172.1,2591.9,172.1z M2591.9,381.5c-41.1,0-74.6-33.5-74.6-74.6
	s33.5-74.6,74.6-74.6c41.1,0,74.6,33.5,74.6,74.6S2633,381.5,2591.9,381.5z"/>
<path class="st1" d="M254.5,626.4c131.6-29.1,259.1-77.2,377.1-142.4c79.9-44.1,156.3-96.4,242.9-125.1s188.5-30,262.5,23.4
	c34.5,24.9,60.4,59.7,90.6,89.7c135.3,134.1,354.9,159.1,532.9,91.3c82.4-31.4,157.9-80.1,242.7-104.3
	c93.4-26.6,193.5-21.9,288.2-0.2c40.5,9.3,82.1,22.6,111.6,52c18.1,18,30.6,41,48.9,58.7"/>
<polygon class="st2" points="322.8,622.6 316.1,598.1 300.1,602.4 284.1,606.4 276,608.4 268,610.3 251.8,614 257.3,638.8 
	273.7,635 281.9,633.1 290.1,631 306.5,627 "/>
<path class="st0" d="M387.4,603.4l-7.8-24.2c-2.6,0.8-5.2,1.7-7.9,2.6l-7.9,2.4l-15.8,4.9l-15.9,4.6l-8,2.3l-8,2.1l6.6,24.5l8.1-2.2
	l8.1-2.3l16.2-4.7l16.1-4.9l8.1-2.5C382.1,605.2,384.7,604.3,387.4,603.4z"/>
<path class="st3" d="M368.8,601.2l-1.9-6c-31.7,9.8-63.8,18.5-96.1,26.1l1.4,6.1C304.7,619.8,336.9,611.1,368.8,601.2z"/>
<polygon class="st0" points="273.3,627.1 271.9,621 270.8,621.3 272.2,627.4 "/>
<path class="st2" d="M451.1,581.2l-8.9-23.8l-15.6,5.7c-2.6,0.9-5.2,1.9-7.8,2.8l-7.8,2.7l-15.7,5.4l-15.7,5.2l7.8,24.2l16-5.2
	l15.9-5.5l8-2.8c2.7-0.9,5.3-1.9,7.9-2.9L451.1,581.2z"/>
<path class="st0" d="M513.6,555.9l-10.1-23.3c-20.2,8.8-40.8,16.9-61.4,24.8l8.9,23.8C472.1,573.2,493,564.9,513.6,555.9z"/>
<path class="st3" d="M494.9,555.5l-2.4-5.8c-30.7,12.8-61.8,24.5-93.2,35.1l2,6C432.8,580.1,464.1,568.4,494.9,555.5z"/>
<path class="st2" d="M574.9,527.8L563.7,505c-4.9,2.5-9.9,4.8-14.9,7.2c-5,2.3-10,4.8-15,7c-10.1,4.5-20.1,9.2-30.3,13.5l10.1,23.3
	c10.4-4.4,20.6-9.1,30.8-13.7c5.1-2.3,10.2-4.8,15.3-7.2C564.8,532.7,569.9,530.3,574.9,527.8z"/>
<path class="st0" d="M634.7,496.7l-12.2-22.2c-9.7,5.2-19.4,10.6-29.2,15.6c-4.9,2.5-9.8,5.1-14.7,7.6l-14.8,7.3l11.1,22.8l15.1-7.5
	c5-2.5,10-5.1,15-7.7C615,507.5,624.8,502.1,634.7,496.7z"/>
<path class="st3" d="M616,498.1l-3-5.6c-29.3,15.6-59.2,30.2-89.5,43.7l2.6,5.8C556.6,528.4,586.6,513.8,616,498.1z"/>
<polygon class="st0" points="527.2,541.5 524.6,535.8 523.6,536.3 526.1,542 "/>
<path class="st2" d="M693.1,463.4l-12.8-21.9c-19.2,11.2-38.4,22.4-57.8,33l12.2,22.2C654.5,485.9,673.8,474.7,693.1,463.4z"/>
<path class="st0" d="M750.7,430.1L738.3,408c-19.6,11-38.8,22.3-58,33.5l12.8,21.9C712.3,452.2,731.5,440.9,750.7,430.1z"/>
<path class="st3" d="M732.2,431.7l-3.1-5.5c-28.9,16.5-57.4,33.6-86.3,50l3.1,5.5C674.9,465.3,703.4,448.2,732.2,431.7z"/>
<path class="st2" d="M809.2,399.4l-11-22.9c-20.4,9.8-40.3,20.5-59.9,31.4l12.4,22.1C770,419.3,789.5,408.9,809.2,399.4z"/>
<path class="st0" d="M869.5,374.1l-8.4-23.9c-21.5,7.6-42.5,16.5-62.8,26.3l11,22.9C829,389.9,849,381.4,869.5,374.1z"/>
<path class="st3" d="M851.2,372.7l-2.3-5.9l-5.8,2.3c-1.9,0.7-3.8,1.6-5.8,2.4l-11.5,4.9c-7.6,3.4-15.2,6.8-22.7,10.5
	c-7.5,3.5-14.9,7.4-22.4,11.1l-11,5.8c-3.7,1.9-7.3,3.9-11,5.9l3,5.5c3.6-2,7.3-4,10.9-5.9l11-5.8c7.4-3.7,14.7-7.5,22.2-11
	c7.4-3.7,15-7,22.5-10.4l11.4-4.8c1.9-0.8,3.8-1.6,5.7-2.4L851.2,372.7z"/>
<path class="st2" d="M932.1,357.4l-4.4-25c-11.3,2-22.6,4.5-33.7,7.5c-11.1,3-22.1,6.4-32.8,10.3l8.4,23.9c10.2-3.7,20.5-6.9,31-9.7
	C910.9,361.7,921.5,359.3,932.1,357.4z"/>
<path class="st0" d="M996.1,352l0.4-25.4c-23.2-0.3-46.2,1.8-68.9,5.8l4.4,25C953.3,353.7,974.7,351.7,996.1,352z"/>
<path class="st3" d="M979.5,344.5l-0.2-6.3c-33.4,1.3-66.4,7.4-98.3,17.3l1.9,6C914.2,351.8,946.8,345.8,979.5,344.5z"/>
<path class="st2" d="M1059.3,360.2l6.3-24.6c-22.7-5.9-46-8.6-69.2-9l-0.4,25.4C1017.5,352.4,1038.8,354.9,1059.3,360.2z"/>
<path class="st0" d="M1117.2,384.4l13.3-21.6c-20.2-12.3-42.2-21.3-64.8-27.2l-6.3,24.6C1079.8,365.5,1099.4,373.5,1117.2,384.4z"/>
<path class="st3" d="M1106.8,369.8l2.8-5.6c-7.5-3.7-15.1-7.2-23-10c-7.9-2.9-15.8-5.5-23.9-7.5c-16.2-4.2-32.8-6.7-49.4-7.9
	l-0.4,6.3c16.3,1.1,32.5,3.6,48.3,7.7c7.9,2,15.6,4.5,23.3,7.3C1092.1,362.8,1099.5,366.1,1106.8,369.8z"/>
<path class="st2" d="M1166.1,425l18.2-17.7c-8-8.2-16.3-16.2-25.2-23.8c-8.9-7.6-18.5-14.6-28.6-20.8l-13.3,21.6
	C1135.1,395.2,1150.9,409.4,1166.1,425z"/>
<path class="st0" d="M1211.6,473.9l18.2-17.7c-15.1-15.6-29.6-32.6-45.5-48.9l-18.2,17.7C1181.3,440.6,1195.8,457.5,1211.6,473.9z"
	/>
<path class="st3" d="M1205.4,456.1l4.6-4.3c-11.3-12.2-22.3-24.7-33.9-36.6c-11.6-12-23.9-23.3-37.4-33.2l-3.7,5.1
	c13.1,9.6,25.1,20.7,36.6,32.6C1183.1,431.4,1194.1,443.8,1205.4,456.1z"/>
<path class="st2" d="M1263.3,519.3l15.2-20.4c-1.1-0.8-2.2-1.6-3.3-2.4l-3.2-2.5l-6.3-5l-3.2-2.5c-1.1-0.8-2-1.8-3.1-2.6l-6.1-5.3
	c-4.2-3.5-8-7.3-11.9-11c-1.9-1.9-3.9-3.7-5.8-5.6c-1.9-1.9-3.8-3.8-5.7-5.8l-18.2,17.7c2,2.1,4,4.1,6,6.1c2,2,4.2,4,6.2,6
	c4.2,3.9,8.3,8,12.7,11.7l6.5,5.6c1.1,0.9,2.2,1.9,3.3,2.8l3.4,2.7l6.8,5.4l3.4,2.7C1261,517.7,1262.1,518.5,1263.3,519.3z"/>
<path class="st0" d="M1321.5,555.9l11.8-22.5c-19.1-10.1-37.5-21.6-54.8-34.5l-15.2,20.4C1281.7,533.1,1301.2,545.3,1321.5,555.9z"
	/>
<path class="st3" d="M1310,540.8l3.1-5.5c-3.6-2.1-7.1-4.3-10.7-6.4l-5.3-3.2l-5.2-3.4c-3.4-2.3-6.9-4.5-10.3-6.9l-10.1-7.3
	c-13.2-10-26.1-20.5-37.9-32.1l-4.4,4.6c12,11.8,25.1,22.4,38.5,32.6l10.2,7.4c3.4,2.4,7,4.7,10.5,7l5.3,3.5l5.4,3.3
	C1302.8,536.5,1306.4,538.7,1310,540.8z"/>
<path class="st2" d="M1384.5,583.2l8.4-24c-20.5-7.2-40.5-15.7-59.6-25.8l-11.8,22.5C1341.8,566.6,1362.9,575.6,1384.5,583.2z"/>
<path class="st0" d="M1450.5,601.3l5.1-24.9c-21.3-4.4-42.3-10.1-62.7-17.2l-8.4,24C1406.1,590.7,1428.2,596.7,1450.5,601.3z"/>
<path class="st3" d="M1435.3,590l1.5-6.1c-16.2-3.7-32-8.6-47.7-14l-11.7-4.2c-2-0.7-3.9-1.5-5.8-2.3l-5.8-2.3l-5.8-2.3
	c-1.9-0.8-3.8-1.7-5.7-2.5l-11.3-5.1l-2.7,5.7l11.5,5.2c1.9,0.9,3.8,1.8,5.8,2.6l5.8,2.4l5.8,2.4c2,0.8,3.9,1.6,5.9,2.3l11.8,4.3
	C1402.9,581.3,1419,586.2,1435.3,590z"/>
<path class="st2" d="M1518.3,610.7l1.9-25.3c-21.7-1.7-43.3-4.6-64.6-9l-5.1,24.9C1472.9,605.9,1495.5,609,1518.3,610.7z"/>
<path class="st0" d="M1586.6,611.9l-1.1-25.4c-21.7,0.9-43.5,0.6-65.2-1.1l-1.9,25.3C1541,612.5,1563.8,612.8,1586.6,611.9z"/>
<path class="st3" d="M1569.1,604.6l-0.1-6.3c-4.1,0.1-8.3,0-12.4,0l-6.2,0c-2.1,0-4.1-0.1-6.2-0.2l-12.4-0.5l-12.4-0.9
	c-2.1-0.2-4.1-0.3-6.2-0.5l-6.2-0.6c-4.1-0.4-8.3-0.8-12.4-1.3c-8.2-1.2-16.4-2.1-24.6-3.7l-1.1,6.2c8.2,1.5,16.6,2.5,24.9,3.7
	c4.2,0.5,8.3,0.9,12.5,1.3l6.3,0.6c2.1,0.2,4.2,0.3,6.3,0.5l12.5,0.9l12.6,0.5c2.1,0.1,4.2,0.2,6.3,0.2l6.3,0
	C1560.7,604.6,1564.9,604.7,1569.1,604.6z"/>
<path class="st2" d="M1654.5,604.8l-4.1-25c-21.5,3.5-43.2,5.8-65,6.8l1.1,25.4C1609.3,610.9,1632,608.5,1654.5,604.8z"/>
<path class="st0" d="M1721.1,589.8l-7-24.4c-20.9,6-42.2,10.8-63.7,14.3l4.1,25C1677,601.1,1699.2,596.1,1721.1,589.8z"/>
<path class="st3" d="M1702.5,586.9l-1.6-6.1c-32.1,8.3-65,13.5-98,16.1l0.5,6.3C1636.7,600.5,1670,595.3,1702.5,586.9z"/>
<path class="st2" d="M1785.5,567l-9.8-23.4c-20.2,8.5-40.7,15.8-61.6,21.8l7,24.4C1743,583.5,1764.6,575.7,1785.5,567z"/>
<path class="st0" d="M1846.9,539.1l-11-22.9c-20,9.6-40,18.9-60.2,27.4l9.8,23.4C1806.4,558.3,1826.7,548.8,1846.9,539.1z"/>
<path class="st3" d="M1828.2,539.4l-2.7-5.7c-15,7-30.1,14-45.5,20.3c-15.3,6.3-30.8,12.3-46.6,17.3l1.9,6c16-5,31.7-11.1,47.1-17.5
	C1797.9,553.5,1813.1,546.5,1828.2,539.4z"/>
<path class="st2" d="M1907.1,510.2l-10.7-23c-20.4,9.5-40.4,19.4-60.4,29l11,22.9C1867.1,529.4,1887,519.5,1907.1,510.2z"/>
<path class="st0" d="M1967.6,484.3l-8.9-23.8c-21.3,8-42,17.1-62.3,26.6l10.7,23C1927.1,500.9,1947.2,492,1967.6,484.3z"/>
<path class="st3" d="M1949.2,483.3l-2.4-5.8l-5.8,2.3l-5.7,2.5c-3.8,1.7-7.7,3.3-11.5,4.9l-11.4,5.1c-3.8,1.7-7.5,3.5-11.3,5.2
	c-15.1,7-30,14.3-45,21.6l2.7,5.7c15-7.3,29.9-14.5,44.9-21.5c3.8-1.7,7.5-3.5,11.3-5.2l11.3-5.1c3.8-1.7,7.6-3.3,11.4-4.9l5.7-2.4
	L1949.2,483.3z"/>
<path class="st2" d="M2029.8,465.4l-5.6-24.7l-4.2,0.9l-2.1,0.5l-2.1,0.5l-8.3,2.2c-2.8,0.7-5.5,1.4-8.3,2.2l-8.2,2.5
	c-2.7,0.8-5.5,1.6-8.2,2.5l-8.1,2.8c-2.7,0.9-5.4,1.8-8.1,2.8l-8,3l8.9,23.8l7.7-2.9c2.6-0.9,5.1-1.8,7.7-2.7l7.7-2.6
	c2.6-0.8,5.2-1.6,7.8-2.4l7.8-2.4c2.6-0.7,5.2-1.4,7.9-2.1l7.9-2.1l2-0.5l2-0.4L2029.8,465.4z"/>
<path class="st0" d="M2094.1,455.4l-2.2-25.3c-22.7,2-45.4,5.4-67.7,10.5l5.6,24.7C2050.9,460.6,2072.4,457.3,2094.1,455.4z"/>
<path class="st3" d="M2076.7,449.5l-0.8-6.3c-2.1,0.2-4.1,0.5-6.2,0.8l-6.2,0.9l-6.2,0.9c-2.1,0.3-4.1,0.7-6.2,1.1l-12.3,2.2
	c-4.1,0.8-8.1,1.8-12.2,2.7l-6.1,1.3l-6,1.6l-12.1,3.2c-8,2.4-16,4.8-23.8,7.6l2,6c7.8-2.8,15.7-5.1,23.5-7.5l11.9-3.2l6-1.6l6-1.3
	c4-0.9,8-1.8,12-2.6l12.1-2.2c2-0.3,4-0.8,6.1-1.1l6.1-0.9l6.1-0.9C2072.6,450,2074.6,449.7,2076.7,449.5z"/>
<path class="st2" d="M2159.4,453.9l0.8-25.4c-22.7-0.8-45.6-0.3-68.3,1.7l2.2,25.3C2115.7,453.6,2137.6,453.1,2159.4,453.9z"/>
<path class="st0" d="M2224.6,459.5l3.5-25.1c-22.5-3.1-45.1-5.1-67.8-5.9l-0.8,25.4C2181.2,454.6,2202.9,456.5,2224.6,459.5z"/>
<path class="st3" d="M2208.9,449.8l0.7-6.3c-8.3-1-16.6-1.6-24.9-2.4c-4.2-0.3-8.3-0.5-12.5-0.8l-6.2-0.4c-2.1-0.1-4.2-0.1-6.2-0.2
	l-12.5-0.3l-12.5,0l-6.2,0l-6.2,0.2l-12.5,0.5l0.3,6.3l12.3-0.5l6.2-0.2l6.2,0l12.4,0l12.4,0.3c2.1,0.1,4.1,0.1,6.2,0.2l6.2,0.4
	c4.1,0.3,8.2,0.4,12.3,0.7C2192.5,448.2,2200.7,448.7,2208.9,449.8z"/>
<path class="st2" d="M2289.2,471.4l5.7-24.7c-22.1-5.1-44.4-9.2-66.9-12.3l-3.5,25.1C2246.3,462.5,2267.8,466.5,2289.2,471.4z"/>
<path class="st0" d="M2350.4,490.8l10.5-23.1c-21.5-9.7-43.8-15.9-65.9-21l-5.7,24.7C2310.5,476.3,2331.3,482.2,2350.4,490.8z"/>
<path class="st3" d="M2338.2,477.5l2.2-5.9c-15.7-5.8-31.8-10.1-48-13.9l-12.2-2.7l-6.1-1.3l-6.1-1.2l-12.3-2.4l-12.3-2.1l-1,6.2
	l12.2,2l12.2,2.3l6.1,1.2l6.1,1.3l12.1,2.6C2307,467.6,2322.9,471.8,2338.2,477.5z"/>
<path class="st2" d="M2400,526.3l19-16.8l-3-3.3c-1-1.1-2.1-2.2-3.2-3.3c-1-1.1-2.2-2.1-3.3-3.2l-3.3-3.1c-2.3-2-4.6-3.9-7-5.9
	c-2.4-1.8-4.8-3.7-7.3-5.4c-9.9-6.9-20.4-12.7-31.2-17.5l-10.5,23.1c9.6,4.3,18.7,9.3,27,15.2c2.1,1.5,4.1,3,6.1,4.6
	c1.9,1.6,3.9,3.2,5.8,4.9l2.8,2.6c0.9,0.9,1.9,1.7,2.7,2.6c0.9,0.9,1.8,1.8,2.6,2.7L2400,526.3z"/>
<path class="st0" d="M2443.1,578.6l17.6-18.3c-7.2-7-13.7-15.2-20.3-23.9c-6.6-8.7-13.4-18-21.2-27l-19,16.8
	c6.8,7.8,13.2,16.5,20,25.5C2426.9,560.8,2434.2,570.1,2443.1,578.6z"/>
<path class="st3" d="M2436.5,560.2l4.8-4c-10.6-12.7-19.8-26.6-30.9-39.2c-1.4-1.5-2.8-3.1-4.3-4.6l-2.2-2.3
	c-0.7-0.7-1.5-1.4-2.3-2.2l-2.3-2.2c-0.8-0.7-1.5-1.4-2.3-2.1l-4.8-4c-6.6-5.2-13.6-9.8-20.9-13.9l-3.1,5.5c7,4,13.8,8.4,20.1,13.4
	l4.6,3.9c0.8,0.6,1.5,1.3,2.2,2l2.2,2.1c0.7,0.7,1.5,1.4,2.2,2.1l2.1,2.2c1.4,1.4,2.7,3,4.1,4.4
	C2416.5,533.2,2425.7,547.1,2436.5,560.2z"/>
</svg>
