<?xml version="1.0" encoding="utf-8"?>
<!-- Generator: Adobe Illustrator 23.0.0, SVG Export Plug-In . SVG Version: 6.00 Build 0)  -->
<svg version="1.0" id="Capa_1" xmlns="http://www.w3.org/2000/svg" xmlns:xlink="http://www.w3.org/1999/xlink" x="0px" y="0px"
	 viewBox="0 0 2640.1 1009.1" style="enable-background:new 0 0 2640.1 1009.1;" xml:space="preserve">
<style type="text/css">
	.st0{fill:#524369;}
	.st1{fill:#FFC952;}
	.st2{fill:#FF7473;}
</style>
<g>
	<path class="st0" d="M499.8,394.8c0-93.7-76.3-170-170-170c-93.7,0-170,76.3-170,170c0,27.5,6.6,53.4,18.2,76.4l151.8,313.1
		l151.9-313.2C493.2,448.2,499.8,422.2,499.8,394.8z M329.8,488.9c-51.9,0-94.1-42.2-94.1-94.1c0-51.9,42.2-94.1,94.1-94.1
		c51.9,0,94.1,42.2,94.1,94.1S381.7,488.9,329.8,488.9z"/>
	<path class="st0" d="M2403.9,266.7c-42.1,0-76.4,34.3-76.4,76.4c0,12.3,2.9,24,8.2,34.3l68.2,140.7l68.2-140.7
		c5.2-10.3,8.2-22,8.2-34.3C2480.3,301,2446,266.7,2403.9,266.7z M2403.9,385.4c-23.3,0-42.3-19-42.3-42.3c0-23.3,19-42.3,42.3-42.3
		c23.3,0,42.3,19,42.3,42.3C2446.2,366.4,2427.2,385.4,2403.9,385.4z"/>
	<path class="st1" d="M481.2,720.5l-11.8-26.6c-24,10.7-48.1,21.1-72.3,31.5l11.5,26.8C432.7,741.8,457,731.3,481.2,720.5z"/>
	<path class="st0" d="M553.3,687.1l-12.8-26.2c-23.5,11.4-47.2,22.4-71.2,33l11.8,26.6C505.3,709.8,529.4,698.7,553.3,687.1z"/>
	<path class="st2" d="M531.3,687.8l-3.1-6.5c-35.5,16.8-71.5,32.6-107.6,48.2l2.9,6.6C459.6,720.5,495.6,704.7,531.3,687.8z"/>
	<path class="st1" d="M624.2,650l-14.3-25.4c-22.7,12.8-45.8,24.8-69.3,36.2l12.8,26.2C577.2,675.4,600.9,663.2,624.2,650z"/>
	<path class="st0" d="M692.4,608.1l-16.3-24.2c-21.5,14.5-43.6,28-66.3,40.8l14.3,25.4C647.4,637,670.2,623,692.4,608.1z"/>
	<path class="st2" d="M670.6,611.8l-3.9-6.1c-4.1,2.6-8.2,5.4-12.4,7.9l-12.6,7.7c-8.5,5-16.9,10-25.5,14.8
		c-17.1,9.6-34.4,18.8-52,27.6l3.3,6.5c17.6-8.8,35.1-18.1,52.3-27.8c8.6-4.8,17.1-9.9,25.6-14.9l12.6-7.7
		C662.3,617.2,666.4,614.4,670.6,611.8z"/>
	<path class="st1" d="M757.3,561.9l-17.1-23.6c-21.3,15.5-42.5,31-64,45.5l16.3,24.2C714.6,593.1,736,577.4,757.3,561.9z"/>
	<path class="st0" d="M821.4,517l-16-24.3c-22.3,14.7-43.9,30.3-65.2,45.8l17.1,23.6C778.6,546.5,799.8,531.2,821.4,517z"/>
	<path class="st2" d="M800,520.7l-4.1-6c-32.5,22.3-63.7,46.1-95.9,68.6l4.1,5.9C736.4,566.7,767.7,542.8,800,520.7z"/>
	<polygon class="st0" points="705.2,588.5 701.1,582.6 699.9,583.4 704.1,589.3 	"/>
	<path class="st1" d="M888.2,478.4l-12.7-26.2c-24.4,11.9-47.8,25.7-70.1,40.4l16,24.3C843.1,502.7,865.3,489.6,888.2,478.4z"/>
	<path class="st0" d="M959.6,451.4l-7.9-28c-13.1,3.7-26,8-38.7,12.8c-12.7,4.9-25.2,10.2-37.4,16.1l12.7,26.2
		c11.5-5.5,23.2-10.5,35.1-15.1C935.2,458.9,947.4,454.9,959.6,451.4z"/>
	<path class="st2" d="M938.3,448.7l-2.3-6.9c-18.7,6.2-37.1,13.6-54.8,22.2c-17.8,8.6-34.9,18.3-51.7,28.7l3.8,6.1
		c16.6-10.3,33.5-19.9,51-28.3C901.8,462.1,919.8,454.8,938.3,448.7z"/>
	<path class="st1" d="M1034.7,436.9l-3-29c-27.1,2.8-53.9,8-80,15.4l7.9,28C984.2,444.4,1009.3,439.5,1034.7,436.9z"/>
	<path class="st0" d="M1110.8,435.8l2.5-29c-13.7-1.2-27.4-1.6-41-1.3c-13.6,0.2-27.2,1-40.7,2.5l3,29c12.7-1.4,25.4-2.1,38.1-2.3
		C1085.6,434.4,1098.3,434.8,1110.8,435.8z"/>
	<path class="st2" d="M1091.9,425.9l0.2-7.2c-19.7-0.5-39.5,0.3-59.1,2.3c-19.6,2-39.1,5.3-58.3,9.9l1.7,7
		c18.9-4.5,38.1-7.8,57.4-9.7C1053.1,426.1,1072.5,425.3,1091.9,425.9z"/>
	<path class="st1" d="M1182.8,453l11.7-26.7c-13-5.8-26.5-10-40.1-13.1c-13.6-3.1-27.4-5.2-41.1-6.4l-2.5,29c12.6,1,24.9,2.9,37,5.7
		C1159.9,444.3,1171.7,448,1182.8,453z"/>
	<path class="st0" d="M1241.7,495.6l21.1-20.1c-2.3-2.6-4.9-4.9-7.3-7.4c-2.5-2.4-4.9-4.9-7.6-7.2l-8-6.9l-8.4-6.4
		c-2.7-2.2-5.8-4.1-8.8-6c-3-1.9-5.9-4-9.1-5.7l-4.7-2.7l-4.8-2.4c-3.1-1.7-6.4-3.1-9.6-4.6l-11.7,26.7
		C1205.1,462.6,1224.5,477.5,1241.7,495.6z"/>
	<path class="st2" d="M1234,475.9l4.8-5.4l-5.6-4.9l-1.4-1.2l-1.5-1.1l-3-2.3l-5.9-4.5c-2-1.4-4.1-2.7-6.2-4.1
		c-8.2-5.6-17-10.2-26.1-14.2c-18.2-7.9-37.5-13.1-57-16l-1.1,7.2c19,2.9,37.7,7.9,55.2,15.5c8.7,3.8,17.2,8.2,25,13.6
		c2,1.3,4,2.6,6,3.9l5.7,4.3l2.8,2.2l1.4,1.1l1.4,1.2L1234,475.9z"/>
	<path class="st1" d="M1289.2,556.1l23.8-16.9c-15.3-21.5-31.1-43.6-50.2-63.7l-21.1,20.1C1259,513.7,1274,534.7,1289.2,556.1z"/>
	<path class="st0" d="M1338.1,620.2l21.8-19.4c-8.3-9.5-16.3-19.4-24-29.8c-7.7-10.4-15.2-21-22.9-31.8l-23.8,16.9
		c7.6,10.7,15.3,21.6,23.3,32.3C1320.6,599.2,1329,609.8,1338.1,620.2z"/>
	<path class="st2" d="M1331.6,598.6l5.6-4.5c-24.5-30.6-45.1-64.3-70.5-94.6l-5.5,4.7C1286.2,533.9,1306.7,567.6,1331.6,598.6z"/>
	<path class="st1" d="M1401,673.9l15.8-24.5c-21.1-13.6-40.4-30-57-48.7l-21.8,19.4C1356.5,640.9,1377.8,658.9,1401,673.9z"/>
	<path class="st0" d="M1475.7,709.2l8.8-27.8c-23.8-7.5-46.7-18.4-67.7-32l-15.8,24.5C1424.2,688.9,1449.4,700.9,1475.7,709.2z"/>
	<path class="st2" d="M1459.1,693.9l2.7-6.7c-36.4-14.4-69.9-36-97.9-63.3l-5.1,5.2C1387.6,657,1421.9,679.2,1459.1,693.9z"/>
	<path class="st1" d="M1557.8,722.5l0.3-29.1c-24.8-0.2-49.7-4.4-73.5-12l-8.8,27.8C1502.2,717.5,1529.9,722.3,1557.8,722.5z"/>
	<path class="st0" d="M1640.3,709.4l-9.4-27.6c-23.4,8-48,11.8-72.8,11.6l-0.3,29.1C1585.6,722.8,1613.8,718.5,1640.3,709.4z"/>
	<path class="st2" d="M1617.7,706.8l-1.7-7c-38,9.4-78.1,8.6-116.1-0.6l-1.7,7c4.9,1.2,9.8,2.2,14.7,3.1c5,0.8,9.9,1.7,14.9,2.3
		c10,1.3,20,2,30.1,2C1577.9,713.9,1598.1,711.6,1617.7,706.8z"/>
	<path class="st1" d="M1713.9,672.5l-15.8-24.5c-21.5,13.8-43.8,25.8-67.3,33.8l9.4,27.6C1666.7,700.3,1691.2,687.1,1713.9,672.5z"
		/>
	<path class="st0" d="M1779,625.7l-17.6-23.2c-21,15.9-41.7,31.6-63.2,45.5l15.8,24.5C1736.7,657.8,1758,641.6,1779,625.7z"/>
	<path class="st2" d="M1757.6,630.8l-4.3-5.8c-7.8,5.9-15.7,11.7-23.7,17.4c-8,5.7-16.1,11.3-24.3,16.5
		c-16.5,10.6-33.6,20.2-51.5,28l2.9,6.6c18.4-8,35.9-17.8,52.6-28.5c8.4-5.4,16.5-11,24.6-16.7
		C1741.8,642.5,1749.7,636.7,1757.6,630.8z"/>
	<path class="st1" d="M1842.3,580.2l-15.7-24.5c-22.8,14.7-44.1,30.9-65.2,46.8l17.6,23.2C1800,609.8,1820.7,594,1842.3,580.2z"/>
	<path class="st0" d="M1909.7,546.4l-9.6-27.5l-9.7,3.6c-3.2,1.3-6.4,2.7-9.6,4c-1.6,0.7-3.2,1.3-4.8,2l-4.7,2.2
		c-3.1,1.4-6.2,3-9.3,4.5c-12.3,6.2-24,13.2-35.4,20.5l15.7,24.5c10.8-6.9,21.7-13.3,32.9-19c2.8-1.4,5.6-2.9,8.5-4.1l4.3-2
		c1.4-0.7,2.9-1.2,4.3-1.8c2.9-1.2,5.7-2.5,8.6-3.6L1909.7,546.4z"/>
	<path class="st2" d="M1888.4,545.2l-2.9-6.6c-18.2,7.8-35.4,17.5-52,28.2c-16.6,10.7-32.5,22.3-48.3,34.1l4.3,5.8
		c7.8-5.9,15.7-11.7,23.7-17.4c8-5.6,16-11.1,24.2-16.4C1853.8,562.3,1870.7,552.7,1888.4,545.2z"/>
	<path class="st1" d="M1983.1,531.3l-2-29.1l-10.3,0.9c-3.4,0.3-6.9,0.8-10.3,1.3c-1.7,0.2-3.4,0.4-5.1,0.7l-5.1,0.9l-5.1,0.9
		c-1.7,0.3-3.4,0.6-5.1,1l-10.1,2.2c-3.4,0.8-6.7,1.8-10,2.6c-1.7,0.5-3.3,0.9-5,1.4l-5,1.6l-4.9,1.6l-2.5,0.8l-2.4,0.9l9.6,27.5
		l2.2-0.8l2.2-0.7l4.5-1.4l4.5-1.4c1.5-0.5,3-0.8,4.5-1.2c3-0.8,6-1.7,9.1-2.4l9.2-2c1.5-0.4,3.1-0.6,4.6-0.9l4.6-0.8l4.6-0.8
		c1.5-0.2,3.1-0.4,4.7-0.6c3.1-0.4,6.2-0.8,9.3-1.2L1983.1,531.3z"/>
	<path class="st0" d="M2057.8,536.2l5.8-28.6l-10.2-1.9c-3.4-0.6-6.8-1-10.3-1.5c-1.7-0.2-3.4-0.5-5.1-0.7l-5.2-0.5l-5.2-0.5
		c-1.7-0.2-3.4-0.3-5.2-0.4l-10.3-0.5c-3.5-0.1-6.9-0.1-10.4-0.1c-1.7,0-3.5,0-5.2,0l-5.2,0.2l-5.2,0.2c-1.7,0.1-3.4,0.1-5.2,0.3
		l2,29.1c1.6-0.2,3.1-0.2,4.7-0.3l4.7-0.2l4.7-0.2c1.6,0,3.1,0,4.7,0c3.1,0,6.3,0,9.4,0.1l9.4,0.5c1.6,0,3.1,0.2,4.7,0.3l4.7,0.4
		l4.7,0.4c1.6,0.2,3.1,0.4,4.6,0.6c3.1,0.5,6.2,0.8,9.3,1.3L2057.8,536.2z"/>
	<path class="st2" d="M2040.1,524.3l0.9-7.2c-39.2-5.2-79.4-2.3-117.5,8.1l1.9,7C1962.7,522,2001.9,519.2,2040.1,524.3z"/>
	<path class="st1" d="M2130.9,559.7l10.1-27.3c-12.1-4.5-24.5-9.4-37.4-13.8c-3.2-1.1-6.5-2.2-9.8-3.2c-3.3-1-6.7-1.9-10-2.9
		c-1.7-0.5-3.3-1-5-1.4l-5.1-1.2l-5.1-1.2c-1.7-0.4-3.4-0.8-5.1-1.1l-5.8,28.6c1.5,0.3,3.1,0.6,4.6,1l4.6,1.1l4.6,1.1
		c1.5,0.4,3,0.8,4.5,1.3c3,0.9,6,1.7,9,2.6c3,0.9,6,1.9,9,3C2106.1,550.2,2118.3,555,2130.9,559.7z"/>
	<path class="st0" d="M2212.7,576.9l0.1-29.1c-3,0.1-6-0.1-9.1-0.3l-4.5-0.2l-4.5-0.5c-6-0.6-11.9-1.7-17.8-3
		c-5.9-1.4-11.9-3.1-17.9-5c-6-1.9-12-4.1-18.1-6.3l-10.1,27.3c6.3,2.3,12.7,4.6,19.3,6.7c6.6,2.1,13.3,4,20.1,5.6
		c6.9,1.6,14,2.9,21.1,3.6l5.3,0.6l5.3,0.3C2205.6,576.7,2209.1,577,2212.7,576.9z"/>
	<path class="st2" d="M2192,566.8l0.9-7.2c-9.7-1-19.2-3.2-28.6-5.8c-9.4-2.6-18.7-5.8-27.9-9.2l-27.6-10.3
		c-9.2-3.4-18.6-6.6-28.2-9.1l-1.9,7c18.6,5,36.6,12.5,55.2,19.3c9.3,3.4,18.7,6.7,28.4,9.4l3.6,1l3.7,0.9c2.4,0.6,4.9,1.2,7.4,1.7
		c2.5,0.6,5,0.9,7.5,1.4C2187,566.2,2189.5,566.4,2192,566.8z"/>
	<polygon class="st0" points="2079.9,532.4 2081.9,525.5 2080.6,525.1 2078.7,532.1 	"/>
	<path class="st1" d="M2294.7,562.6l-8.9-27.7c-12.1,3.9-24.3,7.1-36.5,9.4c-12.2,2.3-24.5,3.5-36.6,3.5l-0.1,29.1
		c14.2,0.1,28.3-1.4,42-4C2268.4,570.4,2281.7,566.8,2294.7,562.6z"/>
	<path class="st0" d="M2369.6,532.9l-11.8-26.7c-12,5.3-23.9,10.5-35.9,15.4c-12,4.9-24,9.4-36,13.2l8.9,27.7c13-4.1,25.7-9,38.1-14
		C2345.3,543.6,2357.5,538.3,2369.6,532.9z"/>
	<path class="st2" d="M2347.5,532.9l-2.9-6.6c-18,7.8-36.3,15.1-54.9,21.1c-18.6,6.1-37.8,10.5-57.2,12.5l0.7,7.2
		c20.1-2.1,39.7-6.7,58.7-12.8C2311,548.1,2329.4,540.7,2347.5,532.9z"/>
</g>
</svg>
