<?xml version="1.0" encoding="utf-8"?>
<!-- Generator: Adobe Illustrator 23.0.0, SVG Export Plug-In . SVG Version: 6.00 Build 0)  -->
<svg version="1.1" id="Warstwa_1" xmlns="http://www.w3.org/2000/svg" xmlns:xlink="http://www.w3.org/1999/xlink" x="0px" y="0px"
	 viewBox="0 0 397.7 512" style="enable-background:new 0 0 397.7 512;" xml:space="preserve">
<style type="text/css">
	.st0{fill:#FFBB85;}
	.st1{fill:#6AA9FF;}
	.st2{fill:#F5A86C;}
	.st3{fill:#2682FF;}
	.st4{fill-rule:evenodd;clip-rule:evenodd;fill:#76AA60;}
	.st5{fill-rule:evenodd;clip-rule:evenodd;fill:#90C67B;}
	.st6{fill:#90C67B;}
	.st7{fill-rule:evenodd;clip-rule:evenodd;fill:#FFD573;}
	.st8{fill-rule:evenodd;clip-rule:evenodd;fill:#F2A900;}
</style>
<g>
	<path class="st0" d="M310.7,114.8c0,31.6-11.3,58.9-33.6,81.2c-22.3,22.3-49.6,33.6-81.2,33.6h-0.1c-31.5,0-58.8-11.3-81.1-33.6
		C92.3,173.7,81,146.4,81,114.8c0-31.5,11.3-58.9,33.6-81.2C137,11.3,164.3,0,195.8,0h0.1c31.5,0,58.9,11.3,81.2,33.6
		C299.4,56,310.7,83.3,310.7,114.8z"/>
	<path class="st1" d="M397.7,394.7c0,24.9-7.9,45-23.5,59.9c-15.4,14.7-35.8,22.1-60.6,22.1H84.1c-24.8,0-45.2-7.4-60.6-22.1
		C7.9,439.8,0,419.6,0,394.7c0-9.6,0.3-19,0.9-28.2c0.6-9.3,1.9-19.4,3.9-30.1c1.9-10.8,4.4-21,7.4-30.3c3.1-9.6,7.3-19.1,12.4-28.3
		c5.4-9.5,11.7-17.7,18.8-24.5c7.4-7.1,16.5-12.8,27-16.9c10.4-4.1,22-6.2,34.4-6.2c4.9,0,9.6,2,18.7,7.9
		c5.7,3.7,12.2,7.9,19.5,12.5c6.2,4,14.7,7.7,25.1,11.1c9.2,3,18.5,4.6,27.7,4.9c1,0,2,0.1,3,0.1c10.2,0,20.6-1.7,30.8-5
		c10.4-3.4,18.9-7.1,25.1-11.1c7.3-4.7,13.8-8.9,19.4-12.5c9.1-5.9,13.8-7.9,18.7-7.9c12.4,0,24,2.1,34.4,6.2
		c10.5,4.2,19.6,9.9,27,16.9c7.1,6.8,13.4,15,18.8,24.5c5.2,9.1,9.4,18.6,12.4,28.2c3,9.3,5.5,19.5,7.4,30.3
		c1.9,10.7,3.2,20.8,3.9,30.1C397.4,375.6,397.7,385.1,397.7,394.7z"/>
	<path class="st2" d="M195.9,229.6L195.9,229.6L195.8,0h0.1c31.5,0,58.9,11.3,81.2,33.6c22.3,22.3,33.6,49.6,33.6,81.2
		c0,31.6-11.3,58.9-33.6,81.2C254.7,218.3,227.4,229.6,195.9,229.6z"/>
	<path class="st3" d="M397.7,394.7c0,24.9-7.9,45-23.5,59.9c-15.4,14.7-35.8,22.1-60.6,22.1H195.8v-210c1,0,2,0.1,3,0.1
		c10.2,0,20.6-1.7,30.8-5c10.4-3.4,18.9-7.1,25.1-11.1c7.3-4.7,13.8-8.9,19.4-12.5c9.1-5.9,13.8-7.9,18.7-7.9
		c12.4,0,24,2.1,34.4,6.2c10.5,4.2,19.6,9.9,27,16.9c7.1,6.8,13.4,15,18.8,24.5c5.2,9.1,9.4,18.6,12.4,28.2c3,9.3,5.5,19.5,7.4,30.3
		c1.9,10.7,3.2,20.8,3.9,30.1C397.4,375.6,397.7,385.1,397.7,394.7z"/>
</g>
<g>
	<g>
		<rect x="37.8" y="360.9" class="st4" width="322.1" height="151.1"/>
		<rect x="56.6" y="379.1" class="st5" width="284.6" height="114.6"/>
		<path class="st4" d="M92.2,379.1c0,19.7-16,35.7-35.7,35.7v-35.7H92.2z"/>
		<path class="st4" d="M305.5,379.1c0,19.7,16,35.7,35.7,35.7v-35.7H305.5z"/>
		<path class="st4" d="M92.2,496.7c0-19.7-16-35.7-35.7-35.7v35.7H92.2z"/>
		<path class="st4" d="M305.5,496.7c0-19.7,16-35.7,35.7-35.7v35.7H305.5z"/>
		
			<ellipse transform="matrix(2.050221e-03 -1 1 2.050221e-03 -237.9713 634.3942)" class="st4" cx="198.9" cy="436.4" rx="42" ry="42"/>
	</g>
	<rect x="37.8" y="340.4" class="st4" width="322.1" height="21"/>
	<g>
		<rect x="37.8" y="360.5" class="st6" width="322.1" height="2"/>
		<rect x="37.8" y="355" class="st6" width="322.1" height="2"/>
		<rect x="37.8" y="349.6" class="st6" width="322.1" height="2"/>
		<rect x="37.8" y="344.2" class="st6" width="322.1" height="2"/>
	</g>
	<rect x="184" y="360.5" class="st7" width="29.8" height="151.5"/>
	<rect x="184" y="340.4" class="st8" width="29.8" height="21.6"/>
</g>
</svg>
