<svg id="Capa_1" enable-background="new 0 0 510 510" height="512" viewBox="0 0 510 510" width="512" xmlns="http://www.w3.org/2000/svg"><g id="XMLID_65_"><path id="XMLID_658_" d="m450 360h30v30h-30z" fill="#6aa9ff"/><path id="XMLID_663_" d="m480 300h30v30h-30z" fill="#6aa9ff"/><path id="XMLID_666_" d="m465 120-10 15 10 15h45v-30z" fill="#3d4566"/><path id="XMLID_669_" d="m405.5 245-15.5 10v75c0 19.557-12.539 36.238-30 42.43l-9.118 16.557 9.118 14.506c34.192-6.968 60-37.272 60-73.493v-75z" fill="#3d4566"/><path id="XMLID_672_" d="m390 195v60h30c11.416.761 22.833-6.508 34.249-24.634 7.036-11.171 10.751-24.12 10.751-37.321v-73.045c-41.422 0-75 33.578-75 75z" fill="#ff445f"/><path id="XMLID_673_" d="m195 0h-105c-33.084 0-60 26.916-60 60v389.859l75 10 90-10 10-220.894z" fill="#4d5e80"/><path id="XMLID_674_" d="m360 449.859v-389.859c0-33.084-26.916-60-60-60h-105v449.859l70 10z" fill="#3d4566"/><path id="XMLID_675_" d="m195 449.859h-165v30l84.031 10 80.969-10 10-16z" fill="#3d4566"/><path id="XMLID_676_" d="m195 449.859v30l66 10 99-10v-30z" fill="#2e2e4d"/><path id="XMLID_679_" d="m90 60v120h105l10-60-10-60z" fill="#3d4566"/><path id="XMLID_682_" d="m195 60h105v120h-105z" fill="#2e2e4d"/><path id="XMLID_685_" d="m120 90v60h75l10-30-10-30z" fill="#f3f5f9"/><path id="XMLID_688_" d="m195 90h75v60h-75z" fill="#e1e6f0"/><path id="XMLID_691_" d="m285 375c0 24.853-20.148 45-45 45-24.853 0-45-20.147-45-45s45-67.5 45-67.5 45 42.647 45 67.5z" fill="#ffbe40"/><path id="XMLID_694_" d="m165 285c0 16.568-13.432 30-30 30s-30-13.432-30-30 30-45 30-45 30 28.432 30 45z" fill="#ffdf3f"/><path id="XMLID_695_" d="m0 480v30h195l13.061-15-13.061-15z" fill="#f3f5f9"/><path id="XMLID_698_" d="m195 480h315v30h-315z" fill="#e1e6f0"/></g></svg>