<?xml version="1.0" encoding="utf-8"?>
<!-- Generator: Adobe Illustrator 23.0.0, SVG Export Plug-In . SVG Version: 6.00 Build 0)  -->
<svg version="1.1" id="Layer_1" xmlns="http://www.w3.org/2000/svg" xmlns:xlink="http://www.w3.org/1999/xlink" x="0px" y="0px"
	 viewBox="0 0 512 512" style="enable-background:new 0 0 512 512;" xml:space="preserve">
<style type="text/css">
	.st0{fill:#FFFFFF;}
	.st1{fill:#EAEAEA;}
</style>
<polygon class="st0" points="206.4,165.2 206.4,305.5 346.7,305.5 346.7,256 255.9,256 255.9,165.2 "/>
<path class="st0" d="M512,185.2L512,15l-67.6,67.6l-7.6-7.6C388.5,26.7,324.2,0.1,255.9,0.1C114.8,0.1,0,114.9,0,256
	s114.8,255.9,255.9,255.9S511.8,397.1,511.8,256h-49.5c0,113.8-92.6,206.4-206.4,206.4S49.5,369.8,49.5,256S142.1,49.6,255.9,49.6
	c55.1,0,106.9,21.5,145.9,60.4l7.6,7.6l-67.6,67.6L512,185.2z"/>
<g>
	<path class="st1" d="M255.9,462.4v49.5c141.1,0,255.9-114.8,255.9-255.9h-49.5C462.3,369.8,369.7,462.4,255.9,462.4z"/>
	<path class="st1" d="M444.4,82.6l-7.6-7.6C388.5,26.7,324.2,0.1,255.9,0.1v49.5c55.1,0,106.9,21.5,145.9,60.4l7.6,7.6l-67.6,67.6
		l170.1,0L512,15L444.4,82.6z"/>
	<rect x="255.9" y="256" class="st1" width="90.8" height="49.5"/>
</g>
</svg>
